Coordinates
version=1
nRows=18
nColumns=22
inDegrees=yes

Units are S.I. units (second, meters, Newtons, ...)
If the header above contains a line with 'inDegrees', this indicates whether rotational values are in degrees (yes) or radians (no).

endheader
time	pelvis_tilt	pelvis_list	pelvis_rotation	pelvis_tx	pelvis_ty	pelvis_tz	hip_flexion_r	hip_adduction_r	hip_rotation_r	knee_angle_r	ankle_angle_r	subtalar_angle_r	hip_flexion_l	hip_adduction_l	hip_rotation_l	knee_angle_l	ankle_angle_l	subtalar_angle_l	lumbar_extension	lumbar_bending	lumbar_rotation
      2.69000000	      3.36009679	     -3.62840558	      2.36034124	     -0.27578058	      0.89941414	      0.05888030	     22.96874759	      5.29714677	     -6.20995087	    -25.91729760	     -3.78252972	     -0.66869396	    -13.58534251	     -5.42723294	     -6.30826971	    -37.85304128	     -2.44310020	      1.92861533	     -8.88263153	      1.03424612	     -9.57423729
      2.70000000	      3.37312691	     -3.79702334	      2.27339196	     -0.26309144	      0.90054194	      0.06058507	     22.52749464	      5.64543349	     -6.20271850	    -26.68574299	     -3.23182551	     -1.17311443	    -12.46865501	     -5.90984275	     -6.18705374	    -40.52863045	     -5.54935754	      2.57835922	     -8.71329582	      1.13922743	     -9.25212285
      2.71000000	      3.41911382	     -3.97444856	      2.18103309	     -0.25071258	      0.90178798	      0.06225590	     21.96738314	      6.00792418	     -6.16672055	    -27.28111932	     -2.65118812	     -1.57413769	    -11.22967872	     -6.40470550	     -6.02488070	    -43.32277762	     -8.62867577	      3.13759543	     -8.62141873	      1.25472608	     -8.90043809
      2.72000000	      3.49028168	     -4.16907046	      2.08969156	     -0.23865247	      0.90311141	      0.06387756	     21.30006004	      6.38859224	     -6.11965216	    -27.70430447	     -2.03234578	     -1.89641599	     -9.87761913	     -6.91637248	     -5.82022090	    -46.19715480	    -11.54665776	      3.58892732	     -8.59684918	      1.38932571	     -8.50739966
      2.73000000	      3.57976805	     -4.37895042	      2.00070901	     -0.22690471	      0.90448864	      0.06543620	     20.53704330	      6.78448456	     -6.05979858	    -27.95970589	     -1.39691438	     -2.15327130	     -8.42641566	     -7.43818664	     -5.58151735	    -49.10065144	    -14.16169108	      3.92208002	     -8.62768712	      1.54408689	     -8.07436287
      2.74000000	      3.67445385	     -4.59119417	      1.91561323	     -0.21545096	      0.90589484	      0.06692679	     19.70364539	      7.17997325	     -5.99409640	    -28.06737866	     -0.77742330	     -2.37065916	     -6.88867144	     -7.94891475	     -5.31101170	    -51.96666275	    -16.33891552	      4.16091507	     -8.69485307	      1.70009534	     -7.59777981
      2.75000000	      3.80670372	     -4.78750231	      1.82884097	     -0.20425652	      0.90737920	      0.06834867	     18.77623607	      7.55715230	     -5.92115657	    -28.05330675	     -0.20899002	     -2.51747359	     -5.33307403	     -8.43035346	     -5.04533493	    -54.71755495	    -17.98105845	      4.31985199	     -8.83094692	      1.83779481	     -7.09219835
      2.76000000	      3.86528134	     -4.97224209	      1.76232714	     -0.19328616	      0.90876780	      0.06966447	     17.86686539	      7.91415304	     -5.84204612	    -27.90205870	      0.38747349	     -2.70683892	     -3.64578961	     -8.86551819	     -4.72074745	    -57.32925145	    -18.89560907	      4.43824594	     -8.89068201	      1.96153541	     -6.55677686
      2.77000000	      3.93551069	     -5.09894908	      1.68894440	     -0.18252052	      0.91019640	      0.07090526	     16.91313249	      8.20880830	     -5.74164468	    -27.68171283	      0.96839114	     -2.87549024	     -1.96056968	     -9.21104667	     -4.41461492	    -59.71818102	    -19.15896556	      4.49959876	     -8.97616345	      2.01718552	     -6.02373712
      2.78000000	      3.98306857	     -5.16231966	      1.61207437	     -0.17193746	      0.91163128	      0.07207292	     15.94883656	      8.43686636	     -5.60427962	    -27.38425594	      1.51174751	     -3.05689177	     -0.25211663	     -9.45011636	     -4.10999382	    -61.85518415	    -18.83277850	      4.49459555	     -9.04185865	      1.99814889	     -5.50271467
      2.79000000	      4.03099629	     -5.17506395	      1.52489617	     -0.16146999	      0.91311989	      0.07317234	     14.94927070	      8.60743934	     -5.45575125	    -27.01611019	      2.02659250	     -3.21930436	      1.43070153	     -9.60037852	     -3.83424355	    -63.70521790	    -18.05384887	      4.44392509	     -9.10446392	      1.91948425	     -4.95718393
      2.80000000	      4.07106833	     -5.13280629	      1.42446826	     -0.15111193	      0.91464835	      0.07421357	     13.93031730	      8.71876890	     -5.26902145	    -26.58969213	      2.50603333	     -3.37160652	      3.08999231	     -9.66033600	     -3.59589209	    -65.25980323	    -16.95705978	      4.34809875	     -9.15146474	      1.77669893	     -4.40707328
      2.81000000	      4.11621985	     -5.03215981	      1.29625983	     -0.14082109	      0.91623919	      0.07521840	     12.87884297	      8.76522988	     -5.05401661	    -26.11159131	      2.96845915	     -3.48752847	      4.68796131	     -9.63019264	     -3.41771381	    -66.49578741	    -15.66642396	      4.23697285	     -9.19574606	      1.56411051	     -3.83434575
      2.82000000	      4.13296185	     -4.89370434	      1.14076700	     -0.13066196	      0.91781171	      0.07620315	     11.84937149	      8.77519392	     -4.75748483	    -25.60217238	      3.37754546	     -3.61009063	      6.27863237	     -9.54236715	     -3.29776381	    -67.44568367	    -14.29955535	      4.06441007	     -9.20906935	      1.30878514	     -3.27527693
      2.83000000	      4.15284408	     -4.70995593	      0.94155134	     -0.12060152	      0.91939218	      0.07717020	     10.81528931	      8.73561314	     -4.39615191	    -25.08338885	      3.76358216	     -3.70084576	      7.80136408	     -9.39277312	     -3.25905650	    -68.09078360	    -12.88384568	      3.88421350	     -9.22555528	      1.00246160	     -2.69332728
      2.84000000	      4.19546595	     -4.48571432	      0.71358619	     -0.11063825	      0.92098750	      0.07807862	      9.76322992	      8.63591976	     -4.02886981	    -24.56421963	      4.13294529	     -3.72805966	      9.22696299	     -9.18315445	     -3.27269114	    -68.42903329	    -11.42090333	      3.80841094	     -9.26968074	      0.65714764	     -2.10663708
      2.85000000	      4.20597743	     -4.24556009	      0.38713341	     -0.10074483	      0.92249989	      0.07908025	      8.74383363	      8.52794000	     -3.52480348	    -24.03071387	      4.45907773	     -3.78439767	     10.59729189	     -8.99097425	     -3.45131050	    -68.47346354	     -9.94795384	      3.64470475	     -9.27247062	      0.28725393	     -1.45438092
      2.86000000	      4.23657652	     -3.99077816	      0.03418336	     -0.09093271	      0.92395288	      0.08003565	      7.71906899	      8.37974563	     -3.04287414	    -23.51117950	      4.77661334	     -3.80614465	     11.86499590	     -8.79091833	     -3.68875818	    -68.23199165	     -8.39390595	      3.58542004	     -9.29746130	     -0.09201086	     -0.80592248
